<?xml version="1.0" encoding="utf-8"?>
<!-- Generator: Adobe Illustrator 19.0.1, SVG Export Plug-In . SVG Version: 6.00 Build 0)  -->
<svg version="1.1" id="Capa_1" xmlns="http://www.w3.org/2000/svg" xmlns:xlink="http://www.w3.org/1999/xlink" x="0px" y="0px"
	 width="120px" height="35px" viewBox="-314 233 120 35" style="enable-background:new -314 233 120 35;" xml:space="preserve">
<style type="text/css">
	.st0{fill:#BDBAFA;}
	.st1{filter:url(#Adobe_OpacityMaskFilter);}
	.st2{fill:#FFFFFF;}
	.st3{mask:url(#b);fill:#FFFFFF;}
</style>
<path class="st0" d="M-314,243.2L-314,243.2l20.2,9.6l20.3-9.5v0l-20.3-9.5L-314,243.2z M-306.7,243.3l12.9-6.1l12.9,6.1l-12.9,6.1
	L-306.7,243.3L-306.7,243.3z M-293.8,256.5l-20.2-9.3v3.5l20.2,9.4l20.3-9.4v-3.5C-273.5,247.1-293.8,256.5-293.8,256.5z
	 M-293.8,263.5l-20.2-9.4v3.5l20.2,9.4l20.3-9.4v-3.5C-273.5,254.1-293.8,263.5-293.8,263.5z"/>
<g transform="translate(52.048)">
	<defs>
		<filter id="Adobe_OpacityMaskFilter" filterUnits="userSpaceOnUse" x="-314" y="233" width="67.9" height="34.9">
			<feColorMatrix  type="matrix" values="1 0 0 0 0  0 1 0 0 0  0 0 1 0 0  0 0 0 1 0"/>
		</filter>
	</defs>
	<mask maskUnits="userSpaceOnUse" x="-314" y="233" width="67.9" height="34.9" id="b">
		<g class="st1">
			<path id="a" class="st2" d="M-314,233h67.9v34.9H-314V233z"/>
		</g>
	</mask>
	<path class="st3" d="M-250.7,250.5c0-1.5-0.5-2.9-1.6-4c-0.5-0.5-1.1-0.9-1.7-1.2c-0.6-0.3-1.4-0.4-2.1-0.4c-0.7,0-1.4,0.1-2.1,0.4
		c-0.6,0.3-1.2,0.7-1.7,1.2c-1,1.1-1.6,2.5-1.6,4c0,1.5,0.5,2.9,1.6,4c0.5,0.5,1.1,0.9,1.7,1.2c0.6,0.3,1.3,0.4,2.1,0.4
		c0.7,0,1.4-0.1,2.1-0.4c0.6-0.3,1.2-0.7,1.7-1.2C-251.3,253.4-250.7,252-250.7,250.5L-250.7,250.5z M-246.1,250.5
		c0,1.4-0.3,2.7-0.8,3.9c-0.5,1.2-1.2,2.2-2.1,3.1c-0.9,0.9-2,1.6-3.2,2.1c-1.2,0.5-2.5,0.8-3.9,0.8c-1.3,0-2.6-0.2-3.9-0.8
		c-1.2-0.5-2.2-1.2-3.2-2.1c-0.9-0.9-1.6-1.9-2.1-3.1c-0.5-1.2-0.8-2.5-0.8-3.9c0-1.3,0.3-2.6,0.8-3.8c0.5-1.2,1.2-2.2,2.1-3.1
		c0.9-0.9,2-1.6,3.2-2.1c1.2-0.5,2.5-0.8,3.8-0.8c1.4,0,2.7,0.3,3.9,0.8c1.2,0.5,2.3,1.2,3.2,2.1c0.9,0.9,1.6,1.9,2.1,3.1
		C-246.3,247.8-246.1,249.1-246.1,250.5L-246.1,250.5z M-267.5,259.7c-0.4,0.2-0.8,0.3-1.2,0.4c-0.5,0.1-0.9,0.2-1.4,0.2
		c-0.7,0-1.3-0.1-2-0.3c-0.6-0.2-1.2-0.5-1.7-0.9c-0.5-0.4-0.8-0.9-1.1-1.6c-0.3-0.7-0.4-1.4-0.4-2.4V233h4.7v21.3
		c0,0.8,0.2,1.3,0.5,1.6c0.3,0.3,0.7,0.4,1.1,0.4c0.5,0,1.1-0.2,1.5-0.5C-267.5,255.9-267.5,259.7-267.5,259.7z M-277.5,241.1
		l-8.4,22.1c-0.6,1.7-1.4,2.8-2.4,3.6c-1,0.7-2.2,1.1-3.6,1.1c-0.5,0-1-0.1-1.4-0.2l-1.5-4.3c0.4,0.2,0.7,0.3,1.1,0.4
		c0.4,0.1,0.7,0.1,1.1,0.1c0.7,0,1.4-0.2,2-0.5c0.6-0.3,1.1-0.9,1.4-1.9l0.6-1.9l-7.2-18.6h5.1l4.3,12l4-12
		C-282.5,241.1-277.5,241.1-277.5,241.1z M-297,238.3h-12.1v6h12v4.1h-12v11.4h-4.9V234h17V238.3L-297,238.3z"/>
</g>
</svg>
